# xmcd
#
# Track frame offsets: 
#        200
#        19157
#        33537
#        46192
#        59120
#        76022
#        90280
#        107510
#        116397
#        127625
#        134950
#        145805
#        161510
#
# Disc length: 2321 seconds
#
# Revision: 1
# Processed by: cddbd v1.5.2PL0 Copyright (c) Steve Scherf et al.
# Submitted via: ExactAudioCopy v0.99pb1
#
DISCID=a2090f0d
DTITLE=John Mooney - Comin' Your Way
DYEAR=1900
DGENRE=Blues
TTITLE0=Brand New Women
TTITLE1=Shake Hands And Tell Me Goodbye
TTITLE2=Ain't Gonna Get Drunk No More
TTITLE3=I'm Mad
TTITLE4=Train Is Leavin'
TTITLE5=Pony Blues
TTITLE6=Take A Walk Round The Corner
TTITLE7=Dirty Rat
TTITLE8=Move To Louisiana
TTITLE9=Shout Sister Shout
TTITLE10=Hot Tub Mambo
TTITLE11=Reap What You Sow
TTITLE12=Stop That Thing
EXTD=
EXTT0=
EXTT1=
EXTT2=
EXTT3=
EXTT4=
EXTT5=
EXTT6=
EXTT7=
EXTT8=
EXTT9=
EXTT10=
EXTT11=
EXTT12=
PLAYORDER=
